# xmcd CD database file
#
# Track frame offsets:
#	187
#	36060
#	50150
#	81032
#	107275
#	125027
#	145417
#	161250
#
# Disc length: 2378 seconds
#
# Revision: 0
# Processed by: cddbd v1.5PL3 Copyright (c) Steve Scherf et al.
# Submitted via: CDex 1.40Release
#
DISCID=64094808
DTITLE=Curtis Mayfield - Something to Believe in
DYEAR=1998
DGENRE=Funk
TTITLE0=Love Me, Love Me Now
TTITLE1=Never Let Me Go
TTITLE2=Tripping Out
TTITLE3=People Never Give Up
TTITLE4=It's Alright
TTITLE5=Something to Believe in
TTITLE6=Never Stop Loving Me
TTITLE7=This Year [Issued As Promotional Copy]
EXTD=YEAR: 1998 ID3G: 5
EXTT0=
EXTT1=
EXTT2=
EXTT3=
EXTT4=
EXTT5=
EXTT6=
EXTT7=
PLAYORDER=
